<svg width="25" height="30" viewBox="0 0 25 30" fill="none" xmlns="http://www.w3.org/2000/svg">
<path d="M5.20222 0.977933C5.20222 0.977933 3.91468 1.5303 3.21925 2.1542C2.51985 2.7781 6.04468 19.6194 6.04468 19.6194C6.04468 19.6194 6.88714 20.7917 7.5468 21.0142C8.20647 21.2368 11.6876 23.3866 11.6876 23.3866C11.6876 23.3866 13.3447 23.9112 14.8508 23.8039C16.3569 23.6926 17.5292 8.09912 17.5292 8.09912C17.5292 8.09912 17.7477 7.65802 16.8695 5.71479C15.9873 3.76759 7.40772 0.24674 5.20222 0.977933Z" fill="white"/>
<path fill-rule="evenodd" clip-rule="evenodd" d="M20.2672 4.57826C15.3237 0.290451 9.29928 -1.16399 5.20222 0.977932C5.12274 3.2192 6.29901 5.38893 7.98393 6.98643C8.17468 7.16923 8.37337 7.34011 8.57604 7.50701C9.52579 8.36934 10.714 9.02901 11.9022 9.42242C11.3736 7.84082 11.1114 5.99296 12.5618 4.80875C13.0904 4.54647 13.75 4.54647 14.1434 4.93989C15.4628 6.25921 14.5369 7.97195 14.0083 9.42242C14.4057 9.15617 14.9342 9.15617 15.3833 8.79455C15.5939 8.66738 15.8005 8.53227 15.9992 8.39319C17.0404 7.7057 17.9663 6.9149 18.7372 6.05257C19.1704 5.56776 19.7347 5.08295 20.2632 4.57032" fill="#FCB246"/>
<path fill-rule="evenodd" clip-rule="evenodd" d="M7.66205 19.8419C7.29248 20.1678 6.94675 20.5056 6.60897 20.8473C8.25813 22.0037 9.98676 22.8541 11.6876 23.3866C11.1273 22.1031 10.4517 20.8712 9.47811 19.7903C9.30723 19.671 9.12841 19.5836 8.93766 19.5399C8.74691 19.4922 8.54822 19.4922 8.33363 19.5399C8.11904 19.5876 7.89651 19.6869 7.65807 19.8459" fill="#D22128"/>
<path fill-rule="evenodd" clip-rule="evenodd" d="M5.15056 18.8723C5.69101 19.4883 6.2553 20.0645 6.83151 20.6049C7.78126 18.8127 8.59988 16.9569 9.0847 14.9461C9.11649 14.7832 9.14033 14.6163 9.16417 14.4494C9.20789 14.1156 9.2357 13.7778 9.24365 13.44C9.24365 13.1539 9.2357 12.8678 9.21186 12.5817C9.06085 10.5749 8.34555 8.58394 7.06994 6.83543C6.9388 6.60098 6.80369 6.36652 6.66858 6.13206C5.40091 3.98616 3.87097 1.96346 2.24168 0.179192C-1.60901 4.38753 -0.408895 12.53 5.15056 18.8723Z" fill="#E91B47"/>
<path fill-rule="evenodd" clip-rule="evenodd" d="M13.0904 25.9816C13.15 26.2518 13.2136 26.522 13.2732 26.7883C13.3208 26.9909 13.3646 27.1936 13.4083 27.3963C13.6785 28.1871 13.8136 29.0693 14.0004 29.9038C16.7741 30.2535 19.3452 29.6574 21.2448 27.9924C25.8028 23.9946 24.7696 15.3634 18.9359 8.71111C18.475 8.18655 17.9981 7.68982 17.5093 7.2209C16.3489 8.43691 15.3038 9.79995 14.2785 11.1312C14.1156 11.3418 13.9567 11.5524 13.7937 11.7591C13.6427 11.9776 13.4917 12.2041 13.3447 12.4346C13.1937 12.6651 13.0506 12.8996 12.9076 13.142C9.90331 17.1198 12.2757 21.7375 13.0864 25.9816" fill="#EF5B2A"/>
</svg>
