<svg width="33" height="40" viewBox="0 0 33 40" fill="none" xmlns="http://www.w3.org/2000/svg">
<g clip-path="url(#clip0_596_719)">
<path d="M7.54473 1.30402C7.54473 1.30402 5.82801 2.04051 4.90077 2.87238C3.96824 3.70424 8.66801 26.1593 8.66801 26.1593C8.66801 26.1593 9.79129 27.7224 10.6708 28.0191C11.5504 28.3158 16.1919 31.1823 16.1919 31.1823C16.1919 31.1823 18.4014 31.8817 20.4095 31.7386C22.4176 31.5903 23.9807 10.7989 23.9807 10.7989C23.9807 10.7989 24.2721 10.2108 23.1011 7.61984C21.9249 5.02357 10.4854 0.329098 7.54473 1.30402Z" fill="white"/>
<path fill-rule="evenodd" clip-rule="evenodd" d="M27.6312 6.10435C21.0399 0.387268 13.0074 -1.55198 7.54461 1.30391C7.43864 4.29226 9.007 7.18525 11.2536 9.31524C11.5079 9.55898 11.7728 9.78681 12.043 10.0093C13.3094 11.1591 14.8936 12.0387 16.4779 12.5632C15.7732 10.4544 15.4235 7.99062 17.3574 6.41166C18.0621 6.06196 18.9417 6.06196 19.4662 6.58652C21.2253 8.34562 19.9908 10.6293 19.2861 12.5632C19.8159 12.2082 20.5206 12.2082 21.1194 11.7261C21.4002 11.5565 21.6757 11.3764 21.9406 11.1909C23.3288 10.2743 24.5634 9.21987 25.5913 8.0701C26.1688 7.42368 26.9212 6.77726 27.6259 6.09375" fill="#FCB246"/>
<path fill-rule="evenodd" clip-rule="evenodd" d="M10.8245 26.4557C10.3318 26.8902 9.87078 27.3406 9.42041 27.7963C11.6193 29.3381 13.9241 30.472 16.1919 31.182C15.4448 29.4706 14.5441 27.8281 13.2459 26.3869C13.0181 26.2279 12.7797 26.1113 12.5253 26.0531C12.271 25.9895 12.0061 25.9895 11.72 26.0531C11.4338 26.1166 11.1371 26.2491 10.8192 26.461" fill="#D22128"/>
<path fill-rule="evenodd" clip-rule="evenodd" d="M7.47581 25.1629C8.19641 25.9842 8.94879 26.7525 9.71708 27.4731C10.9834 25.0834 12.0749 22.609 12.7213 19.928C12.7637 19.7108 12.7955 19.4882 12.8273 19.2657C12.8856 18.8206 12.9227 18.3702 12.9333 17.9199C12.9333 17.5384 12.9227 17.1569 12.8909 16.7754C12.6895 14.0996 11.7358 11.4451 10.035 9.11376C9.86014 8.80115 9.67999 8.48854 9.49984 8.17593C7.80962 5.31473 5.76969 2.6178 3.59731 0.23877C-1.53694 5.84988 0.0632072 16.7065 7.47581 25.1629Z" fill="#E91B47"/>
<path fill-rule="evenodd" clip-rule="evenodd" d="M18.0622 34.6422C18.1417 35.0025 18.2265 35.3628 18.306 35.7178C18.3696 35.988 18.4278 36.2582 18.4861 36.5284C18.8464 37.5828 19.0266 38.7591 19.2756 39.8718C22.9739 40.338 26.4021 39.5433 28.9348 37.3232C35.0121 31.9929 33.6345 20.4846 25.8563 11.6149C25.2417 10.9155 24.6059 10.2532 23.9542 9.62793C22.407 11.2493 21.0135 13.0667 19.6465 14.8417C19.4293 15.1225 19.2173 15.4033 19.0001 15.6788C18.7987 15.9702 18.5974 16.2723 18.4013 16.5796C18.2 16.8869 18.0093 17.1995 17.8185 17.5227C13.8128 22.8265 16.976 28.9834 18.0569 34.6422" fill="#EF5B2A"/>
</g>
<defs>
<clipPath id="clip0_596_719">
<rect width="32.1168" height="40" fill="white" transform="translate(0.608398)"/>
</clipPath>
</defs>
</svg>
