<svg width="29" height="32" viewBox="0 0 29 32" fill="none" xmlns="http://www.w3.org/2000/svg">
<g clip-path="url(#clip0_569_1814)">
<rect width="28.7347" height="32" rx="8.70748" fill="#FAFAFA"/>
<rect x="10.6665" y="14.912" width="7.42464" height="13.9463" rx="1.49953" fill="white" stroke="#E77F5C" stroke-width="0.435374" stroke-linecap="round"/>
<path d="M10.873 23.9061V19.4482H18.3401C17.7777 21.7342 14.4243 24.0295 10.873 23.9061Z" fill="#E77F5C"/>
<path d="M7.29248 11.8296C8.75626 11.8297 9.90466 12.8973 9.90479 14.1694C9.90479 15.4416 8.75634 16.5102 7.29248 16.5103C5.82855 16.5103 4.68018 15.4417 4.68018 14.1694C4.6803 12.8973 5.82863 11.8296 7.29248 11.8296Z" fill="white" stroke="#E77F5C" stroke-width="0.435374"/>
<path d="M21.5508 11.8296C20.087 11.8297 18.9386 12.8973 18.9385 14.1694C18.9385 15.4416 20.0869 16.5102 21.5508 16.5103C23.0147 16.5103 24.1631 15.4417 24.1631 14.1694C24.163 12.8973 23.0146 11.8296 21.5508 11.8296Z" fill="white" stroke="#E77F5C" stroke-width="0.435374"/>
<g clip-path="url(#clip1_569_1814)">
<path d="M14.4795 6.36768C16.8294 6.36771 18.6155 6.93667 19.8145 8.08057C21.0114 9.22269 21.6602 10.9731 21.6602 13.4165C21.6601 15.8602 21.011 17.724 19.8076 18.9761C18.6055 20.2266 16.8196 20.8979 14.4795 20.8979C12.1391 20.8979 10.3232 20.2263 9.0918 18.9741C7.85992 17.7213 7.1836 15.8577 7.18359 13.4165C7.18359 10.9756 7.8594 9.22457 9.08496 8.08154C10.3133 6.9362 12.1297 6.36768 14.4795 6.36768Z" fill="white" stroke="#E77F5C" stroke-width="0.435374" stroke-linecap="round"/>
<path d="M14.4761 15.1294C14.2616 15.8708 14.1495 16.2582 14.1495 17.0295C14.4368 17.167 14.7115 17.2013 15.1835 17.1974" stroke="#E77F5C" stroke-width="0.435374" stroke-linecap="round" stroke-linejoin="round"/>
<path d="M10.641 14.4956C10.8653 14.4956 11.0644 14.6172 11.2054 14.8052C11.3465 14.9932 11.432 15.2509 11.432 15.5327C11.432 15.8144 11.3464 16.0713 11.2054 16.2593C11.0644 16.4473 10.8654 16.5688 10.641 16.5688C10.4167 16.5687 10.2175 16.4472 10.0765 16.2593C9.93572 16.0713 9.85003 15.8143 9.84998 15.5327C9.84998 15.2509 9.93555 14.9932 10.0765 14.8052C10.2175 14.6172 10.4167 14.4957 10.641 14.4956Z" fill="#E77F5C" stroke="#E77F5C" stroke-width="0.108844" stroke-linecap="round"/>
<circle cx="10.9515" cy="15.2914" r="0.272109" fill="white" stroke="#E77F5C" stroke-width="0.108844"/>
<path d="M18.4778 14.4956C18.7021 14.4956 18.9012 14.6172 19.0422 14.8052C19.1833 14.9932 19.2688 15.2509 19.2688 15.5327C19.2687 15.8144 19.1832 16.0713 19.0422 16.2593C18.9012 16.4473 18.7022 16.5688 18.4778 16.5688C18.2535 16.5687 18.0543 16.4472 17.9133 16.2593C17.7725 16.0713 17.6868 15.8143 17.6868 15.5327C17.6868 15.2509 17.7723 14.9932 17.9133 14.8052C18.0543 14.6172 18.2535 14.4957 18.4778 14.4956Z" fill="#E77F5C" stroke="#E77F5C" stroke-width="0.108844" stroke-linecap="round"/>
<circle cx="18.788" cy="15.2914" r="0.217687" fill="white"/>
<path d="M13.7141 18.4688C14.0406 18.8678 14.8896 19.4266 15.6733 18.4688" stroke="#E77F5C" stroke-width="0.435374" stroke-linecap="round" stroke-linejoin="round"/>
<g filter="url(#filter0_f_569_1814)">
<ellipse cx="10.1767" cy="17.7964" rx="1.03401" ry="0.598639" fill="#FC9D80" fill-opacity="0.3"/>
</g>
<g filter="url(#filter1_f_569_1814)">
<ellipse cx="18.7752" cy="17.7964" rx="1.03401" ry="0.598639" fill="#FC9D80" fill-opacity="0.3"/>
</g>
</g>
<path d="M5.82302 9.25196C5.45742 12.5178 7.18356 14.7486 7.51009 15.0207C7.51009 15.0207 7.8616 12.1316 9.22841 9.8506C13.4143 11.3577 15.1376 11.4068 19.3196 9.8506C20.0271 11.0479 20.9523 12.7894 21.3611 15.0207C22.0407 14.7486 23.118 9.73582 22.7482 7.40162C22.3784 5.06742 20.5867 5.23728 20.5867 5.23728C20.5867 5.23728 21.8774 4.07872 21.3611 2.92016C20.8449 1.7616 18.3925 2.92016 18.3925 2.92016C18.3925 2.92016 19.5541 1.24669 17.618 0.73177C15.682 0.216855 13.3587 2.40524 13.3587 2.40524C13.3587 2.40524 14.2622 0.73177 12.5843 0.73177C10.9063 0.73177 9.22841 4.07872 9.22841 4.07872C9.22841 4.07872 8.82875 2.7653 8.05431 3.53767C7.27986 4.31005 7.67955 7.03948 7.67955 7.03948C7.67955 7.03948 6.18861 5.98614 5.82302 9.25196Z" fill="#E77F5C"/>
<path d="M10.5768 20.9019C10.6265 20.8789 10.6996 20.8968 10.736 20.9595C12.4932 24.0043 16.7479 23.7664 18.0748 20.9878C18.1109 20.9122 18.1926 20.89 18.2448 20.9136C21.1788 22.2434 23.1057 23.6576 24.4215 25.5044C25.7388 27.3533 26.4601 29.6585 26.9401 32.8013C26.9499 32.8667 26.8982 32.9253 26.8336 32.9253H1.7926C1.72805 32.9253 1.67683 32.8659 1.68713 32.8003C2.20561 29.5006 3.05798 27.1683 4.45471 25.3442C5.85154 23.5202 7.80883 22.1829 10.5768 20.9019Z" fill="white" stroke="#E77F5C" stroke-width="0.435374" stroke-linecap="round" stroke-linejoin="round"/>
<path d="M10.4487 20.9526L10.605 25.693C10.6079 25.7816 10.7099 25.8297 10.7801 25.7757L14.1494 23.1839" stroke="#E77F5C" stroke-width="0.435374" stroke-linecap="round"/>
<path d="M18.2854 20.9526L18.1291 25.693C18.1262 25.7816 18.0243 25.8297 17.954 25.7757L14.5847 23.1839" stroke="#E77F5C" stroke-width="0.435374" stroke-linecap="round"/>
<line x1="14.3671" y1="23.2358" x2="14.4772" y2="32.7051" stroke="#E77F5C" stroke-width="0.435374"/>
<circle cx="15.8909" cy="27.0481" r="0.653061" fill="#E77F5C"/>
<circle cx="15.8909" cy="30.3132" r="0.653061" fill="#E77F5C"/>
</g>
<defs>
<filter id="filter0_f_569_1814" x="7.83658" y="15.8916" width="4.68024" height="3.80951" filterUnits="userSpaceOnUse" color-interpolation-filters="sRGB">
<feFlood flood-opacity="0" result="BackgroundImageFix"/>
<feBlend mode="normal" in="SourceGraphic" in2="BackgroundImageFix" result="shape"/>
<feGaussianBlur stdDeviation="0.653061" result="effect1_foregroundBlur_569_1814"/>
</filter>
<filter id="filter1_f_569_1814" x="16.4351" y="15.8916" width="4.68024" height="3.80951" filterUnits="userSpaceOnUse" color-interpolation-filters="sRGB">
<feFlood flood-opacity="0" result="BackgroundImageFix"/>
<feBlend mode="normal" in="SourceGraphic" in2="BackgroundImageFix" result="shape"/>
<feGaussianBlur stdDeviation="0.653061" result="effect1_foregroundBlur_569_1814"/>
</filter>
<clipPath id="clip0_569_1814">
<rect width="28.7347" height="32" rx="8.70748" fill="white"/>
</clipPath>
<clipPath id="clip1_569_1814">
<rect width="14.9116" height="20.6803" fill="white" transform="translate(6.96582 0.65332)"/>
</clipPath>
</defs>
</svg>
