<svg width="30" height="30" viewBox="0 0 30 30" fill="none" xmlns="http://www.w3.org/2000/svg">
<path d="M15.3624 21.9646C19.3414 21.9646 22.5669 18.7391 22.5669 14.7602C22.5669 10.7812 19.3414 7.55566 15.3624 7.55566C11.3835 7.55566 8.15796 10.7812 8.15796 14.7602C8.15796 18.7391 11.3835 21.9646 15.3624 21.9646Z" fill="white"/>
<path d="M15.3624 7.55901H27.8389C26.5746 5.36847 24.7559 3.54941 22.5656 2.28472C20.3753 1.02004 17.8906 0.354316 15.3615 0.354492C12.8323 0.354669 10.3477 1.02074 8.15756 2.28573C5.96744 3.55072 4.14898 5.37004 2.88501 7.56075L9.12326 18.3657L9.12884 18.3643C8.49425 17.27 8.15936 16.0277 8.15794 14.7627C8.15651 13.4977 8.48861 12.2547 9.12074 11.1589C9.75287 10.0632 10.6627 9.15344 11.7585 8.52142C12.8543 7.88941 14.0974 7.55745 15.3624 7.55901Z" fill="url(#paint0_linear_739_4254)"/>
<path d="M15.3625 20.4669C18.5125 20.4669 21.066 17.9134 21.066 14.7634C21.066 11.6134 18.5125 9.05981 15.3625 9.05981C12.2125 9.05981 9.65894 11.6134 9.65894 14.7634C9.65894 17.9134 12.2125 20.4669 15.3625 20.4669Z" fill="#1A73E8"/>
<path d="M21.6012 18.3674L15.3629 29.1724C17.8921 29.1727 20.3768 28.5072 22.5672 27.2427C24.7576 25.9781 26.5764 24.1592 27.8409 21.9688C29.1053 19.7784 29.7707 17.2936 29.7703 14.7644C29.7698 12.2353 29.1035 9.75077 27.8383 7.56079H15.3619L15.3604 7.56637C16.6254 7.56393 17.8687 7.89504 18.9649 8.5263C20.0612 9.15757 20.9716 10.0667 21.6045 11.162C22.2374 12.2573 22.5703 13.5001 22.5697 14.7651C22.5691 16.0302 22.2351 17.2727 21.6012 18.3674Z" fill="url(#paint1_linear_739_4254)"/>
<path d="M9.12359 18.3675L2.88534 7.5625C1.62043 9.75267 0.95444 12.2373 0.954346 14.7665C0.954251 17.2956 1.62005 19.7803 2.8848 21.9706C4.14955 24.1608 5.96867 25.9795 8.15924 27.2437C10.3498 28.5079 12.8346 29.1731 15.3638 29.1724L21.6021 18.3674L21.598 18.3633C20.9676 19.46 20.0592 20.3712 18.9644 21.0049C17.8696 21.6387 16.627 21.9726 15.362 21.973C14.097 21.9734 12.8543 21.6404 11.759 21.0074C10.6638 20.3744 9.75474 19.4638 9.12359 18.3675Z" fill="url(#paint2_linear_739_4254)"/>
<defs>
<linearGradient id="paint0_linear_739_4254" x1="2.88501" y1="9.36013" x2="27.8389" y2="9.36013" gradientUnits="userSpaceOnUse">
<stop stop-color="#D93025"/>
<stop offset="1" stop-color="#EA4335"/>
</linearGradient>
<linearGradient id="paint1_linear_739_4254" x1="13.3944" y1="28.9797" x2="25.8714" y2="7.36903" gradientUnits="userSpaceOnUse">
<stop stop-color="#FCC934"/>
<stop offset="1" stop-color="#FBBC04"/>
</linearGradient>
<linearGradient id="paint2_linear_739_4254" x1="16.9221" y1="28.2727" x2="4.44517" y2="6.66194" gradientUnits="userSpaceOnUse">
<stop stop-color="#1E8E3E"/>
<stop offset="1" stop-color="#34A853"/>
</linearGradient>
</defs>
</svg>
