<svg width="81" height="81" viewBox="0 0 81 81" fill="none" xmlns="http://www.w3.org/2000/svg">
<path d="M61.5528 19.7107L42.6056 17.6055L19.4476 19.7107L17.342 40.7635L19.4472 61.8163L40.5 64.4479L61.5528 61.8163L63.658 40.2375L61.5528 19.7107Z" fill="white"/>
<path d="M28.0844 52.374C26.5108 51.3108 25.4212 49.7584 24.8264 47.7056L28.4792 46.2004C28.8108 47.4636 29.3896 48.4424 30.216 49.1372C31.0372 49.832 32.0372 50.174 33.2056 50.174C34.4004 50.174 35.4268 49.8108 36.2844 49.0844C37.142 48.358 37.574 47.4316 37.574 46.3108C37.574 45.1636 37.1212 44.2264 36.216 43.5004C35.3108 42.7744 34.174 42.4108 32.816 42.4108H30.7056V38.7952H32.6C33.7684 38.7952 34.7528 38.4796 35.5528 37.848C36.3528 37.2164 36.7528 36.3532 36.7528 35.2532C36.7528 34.2744 36.3948 33.4952 35.6792 32.9112C34.9636 32.3272 34.058 32.0324 32.958 32.0324C31.8844 32.0324 31.0316 32.3168 30.4 32.8904C29.7684 33.464 29.3104 34.1692 29.0212 35.0008L25.4056 33.4956C25.8844 32.1376 26.7636 30.9376 28.0528 29.9008C29.3424 28.864 30.9896 28.3428 32.9896 28.3428C34.4684 28.3428 35.8 28.6272 36.9792 29.2008C38.158 29.7744 39.0844 30.5692 39.7528 31.5796C40.4212 32.5952 40.7528 33.7324 40.7528 34.9952C40.7528 36.2848 40.4424 37.374 39.8212 38.2688C39.2 39.1636 38.4368 39.8476 37.5316 40.3268V40.5424C38.7264 41.0424 39.7 41.8056 40.4684 42.832C41.2316 43.8584 41.6156 45.0848 41.6156 46.5164C41.6156 47.948 41.2524 49.2268 40.526 50.348C39.7996 51.4692 38.7944 52.3532 37.5208 52.9952C36.242 53.6372 34.8052 53.9636 33.2104 53.9636C31.3632 53.9688 29.658 53.4372 28.0844 52.374Z" fill="#1A73E8"/>
<path d="M50.5002 34.2481L46.5106 37.1481L44.5054 34.1061L51.7002 28.9165H54.4582V53.3953H50.5002V34.2481Z" fill="#1A73E8"/>
<path d="M61.5527 80.7636L80.4999 61.8164L71.0263 57.606L61.5527 61.8164L57.3423 71.29L61.5527 80.7636Z" fill="#EA4335"/>
<path d="M15.2368 71.29L19.4472 80.7636H61.5524V61.8164H19.4472L15.2368 71.29Z" fill="#34A853"/>
<path d="M6.8156 0.763672C3.3264 0.763672 0.5 3.59007 0.5 7.07927V61.8161L9.9736 66.0265L19.4472 61.8161V19.7109H61.5524L65.7628 10.2373L61.5528 0.763672H6.8156Z" fill="#4285F4"/>
<path d="M0.5 61.8164V74.448C0.5 77.9376 3.3264 80.7636 6.8156 80.7636H19.4472V61.8164H0.5Z" fill="#188038"/>
<path d="M61.5527 19.7109V61.8161H80.4999V19.7109L71.0263 15.5005L61.5527 19.7109Z" fill="#FBBC04"/>
<path d="M80.4999 19.7109V7.07927C80.4999 3.58967 77.6735 0.763672 74.1843 0.763672H61.5527V19.7109H80.4999Z" fill="#1967D2"/>
</svg>
