<svg width="41" height="42" viewBox="0 0 41 42" fill="none" xmlns="http://www.w3.org/2000/svg">
<g clip-path="url(#clip0_596_728)">
<path d="M9.68164 39.2228H11.0858V36.4174H13.7853V35.0926H11.0858V33.3566H14.2348V32.0288H9.68164V39.2228Z" fill="#03A9AA"/>
<path d="M21.0673 33.6885C20.6678 33.6885 20.327 33.7796 20.0421 33.9646C19.7571 34.1497 19.528 34.3876 19.3518 34.6784C19.1902 34.3612 18.964 34.1144 18.6673 33.9441C18.3706 33.7707 18.0269 33.6856 17.6363 33.6856C17.3219 33.6856 17.037 33.7502 16.7814 33.8765C16.5259 34.0057 16.3173 34.1849 16.1528 34.4141V33.8442H14.7839V39.2169H16.1528V36.1677C16.1528 35.8035 16.2498 35.5127 16.4407 35.2982C16.6316 35.0838 16.8931 34.9781 17.2221 34.9781C17.5511 34.9781 17.7978 35.0838 17.9888 35.2982C18.1797 35.5127 18.2737 35.8006 18.2737 36.1677V39.2169H19.6426V36.1677C19.6426 35.8035 19.7395 35.5127 19.9304 35.2982C20.1214 35.0838 20.3828 34.9781 20.7118 34.9781C21.0408 34.9781 21.2876 35.0838 21.4785 35.2982C21.6694 35.5127 21.7634 35.8006 21.7634 36.1677V39.2169H23.1323V35.9621C23.1323 35.2542 22.9443 34.6961 22.5713 34.2907C22.1982 33.8853 21.6959 33.6826 21.0673 33.6826" fill="#03A9AA"/>
<path d="M27.7943 36.7524C27.7943 37.143 27.6885 37.4603 27.48 37.7041C27.2714 37.9479 26.9923 38.0684 26.6516 38.0684C26.3108 38.0684 26.0318 37.9479 25.8203 37.7041C25.6088 37.4603 25.506 37.146 25.506 36.7524V33.8501H24.1371V36.8581C24.1371 37.6101 24.3662 38.2152 24.8274 38.6735C25.2886 39.1317 25.8967 39.3609 26.6516 39.3609C27.4065 39.3609 28.0146 39.1317 28.4758 38.6735C28.937 38.2152 29.1661 37.6101 29.1661 36.8581V33.8501H27.7972V36.7524H27.7943Z" fill="#03A9AA"/>
<path d="M33.6987 36.5055C33.5283 36.391 33.3403 36.2911 33.1347 36.2089C32.929 36.1266 32.7205 36.059 32.5148 36.0032C32.3092 35.9474 32.1212 35.8916 31.9508 35.8358C31.7805 35.78 31.6424 35.7065 31.5367 35.6155C31.4309 35.5274 31.378 35.4187 31.378 35.2953C31.378 35.1455 31.4456 35.025 31.5807 34.931C31.7158 34.837 31.898 34.79 32.1271 34.79C32.6735 34.79 33.117 34.9898 33.4519 35.3864L34.2245 34.5756C34.0188 34.2936 33.7339 34.0762 33.3638 33.9205C32.9937 33.7649 32.5707 33.6885 32.0918 33.6885C31.4427 33.6885 30.9345 33.8442 30.5702 34.1585C30.206 34.4728 30.0238 34.8488 30.0238 35.2924C30.0238 35.498 30.0562 35.683 30.1237 35.8475C30.1883 36.015 30.2794 36.153 30.3881 36.2647C30.4997 36.3763 30.626 36.4762 30.7729 36.5643C30.9168 36.6524 31.0696 36.7259 31.2312 36.7846C31.3927 36.8434 31.5513 36.8962 31.71 36.9462C31.8686 36.9961 32.0213 37.0431 32.1653 37.0901C32.3092 37.1371 32.4385 37.19 32.5472 37.2429C32.6588 37.2987 32.7469 37.3662 32.8115 37.4455C32.8762 37.5249 32.9114 37.6189 32.9114 37.7187C32.9114 37.892 32.8409 38.0272 32.7028 38.127C32.5648 38.2269 32.368 38.2769 32.1124 38.2769C31.4779 38.2769 30.9521 38.0477 30.5408 37.5924L29.78 38.4678C30.0209 38.7498 30.3352 38.9701 30.72 39.1346C31.1048 39.2962 31.5455 39.3784 32.039 39.3784C32.741 39.3784 33.2874 39.2169 33.681 38.8937C34.0747 38.5706 34.2685 38.1711 34.2685 37.6923C34.2685 37.4191 34.2157 37.1812 34.1099 36.9785C34.0042 36.7758 33.8661 36.6172 33.6957 36.5026" fill="#03A9AA"/>
<path d="M38.9567 37.6482C38.6864 37.9449 38.3457 38.0918 37.9315 38.0918C37.5173 38.0918 37.1824 37.942 36.9122 37.6453C36.6419 37.3486 36.5068 36.9814 36.5068 36.5467C36.5068 36.1119 36.6419 35.7388 36.9151 35.4363C37.1883 35.1367 37.5261 34.9839 37.9315 34.9839C38.3369 34.9839 38.6864 35.1337 38.9567 35.4363C39.2269 35.7359 39.3621 36.106 39.3621 36.5467C39.3621 36.9873 39.2269 37.3515 38.9567 37.6482ZM39.9789 34.4963C39.4796 33.9616 38.8686 33.6943 38.1459 33.6943C37.4821 33.6943 36.9357 33.944 36.5068 34.4405V33.853H35.1379V41.4229H36.5068V38.6881C36.9122 39.1522 37.4586 39.3843 38.1459 39.3843C38.8862 39.3843 39.5031 39.1111 39.9936 38.5677C40.4842 38.0242 40.728 37.3427 40.728 36.529C40.728 35.7153 40.4783 35.028 39.9789 34.4933" fill="#03A9AA"/>
<path d="M24.3779 18.4341C24.3779 25.9306 30.4762 32.0318 37.9756 32.0318H40.7163V25.3461H37.9756C34.1657 25.3461 31.0666 22.247 31.0666 18.4371C31.0666 14.8327 33.8426 11.8659 37.3676 11.5545C39.2505 11.3636 40.7163 9.77436 40.7163 7.84149V4.83936H37.9756C30.4791 4.83936 24.3779 10.9376 24.3779 18.4371" fill="#03A9AA"/>
<path d="M16.4732 10.3208H9.68164V17.1123H16.4732V10.3208Z" fill="#03A9AA"/>
<path d="M9.68155 10.3208H0.725098V17.1123H9.68155V10.3208Z" fill="#1988C8"/>
<path d="M16.4732 0.577148H13.4123C11.3531 0.577148 9.68164 2.24859 9.68164 4.30778V10.3209H16.4732V0.577148Z" fill="#1988C8"/>
<path d="M9.68164 26.8589H12.7337C14.7929 26.8589 16.4643 25.1875 16.4643 23.1283L16.4732 23.1518V17.1152H9.68164V26.8589Z" fill="#1988C8"/>
<path d="M24.3778 10.3209H16.473V17.1124H24.4395C24.8713 12.6474 27.471 8.81097 31.1664 6.66366V0.577148H24.3749V10.3209H24.3778Z" fill="#1988C8"/>
</g>
<defs>
<clipPath id="clip0_596_728">
<rect width="40" height="40.846" fill="white" transform="translate(0.725098 0.577148)"/>
</clipPath>
</defs>
</svg>
